<svg width="142" height="61" viewBox="0 0 142 61" fill="none" xmlns="http://www.w3.org/2000/svg">
<path d="M134.63 0.410003C128.51 0.530003 105.05 3.92 85.4899 33.26C85.9699 28.01 87.6499 21.8 91.6399 14.09C93.1999 10.25 91.6999 7.55 86.0299 7.67C80.2699 7.76 57.1399 11.18 39.3199 42.17C39.4099 37.91 40.5499 32.78 43.9999 26.12C45.1399 23.27 44.0599 21.29 39.8599 21.35C35.0899 21.44 14.1799 24.56 0.709864 56C-0.340136 58.07 1.03986 60.59 3.25986 60.59H133.88C136.46 60.59 139.34 60.08 137.75 53.87C135.68 43.1 128.51 31.88 141.02 7.73C142.79 3.35 141.08 0.320003 134.66 0.410003H134.63Z" fill="url(#paint0_linear_2_1430)"/>
<defs>
<linearGradient id="paint0_linear_2_1430" x1="70.9999" y1="0.410003" x2="70.9999" y2="60.59" gradientUnits="userSpaceOnUse">
<stop stop-color="white"/>
<stop offset="0.23" stop-color="white" stop-opacity="0.99"/>
<stop offset="0.42" stop-color="white" stop-opacity="0.95"/>
<stop offset="0.6" stop-color="white" stop-opacity="0.88"/>
<stop offset="0.77" stop-color="white" stop-opacity="0.78"/>
<stop offset="0.93" stop-color="white" stop-opacity="0.66"/>
<stop offset="1" stop-color="white" stop-opacity="0.6"/>
</linearGradient>
</defs>
</svg>
